PathFileType	4	(X/Y/Z)	SUBJ89_1_walk_RCNL2025.trc
DataRate	CameraRate	NumFrames	NumMarkers	Units	OrigDataRate	OrigDataStartFrame	OrigNumFrames
100	100	7	25	mm	100	31	243
Frame#	Time	R_Shoulder			L_Shoulder			C7			J_Notch			R_Elbow			L_Elbow			R_Wrist			L_Wrist			R_Asis			L_Asis			Sacral			Thoracic			Sternum			R_Thigh_Lateral			R_Knee_Lateral			R_Shank_Lateral			R_Ankle_Lateral			R_Heel			R_Toe			L_Thigh_Lateral			L_Knee_Lateral			L_Shank_Lateral			L_Ankle_Lateral			L_Heel			L_Toe		
		X1	Y1	Z1	X2	Y2	Z2	X3	Y3	Z3	X4	Y4	Z4	X5	Y5	Z5	X6	Y6	Z6	X7	Y7	Z7	X8	Y8	Z8	X9	Y9	Z9	X10	Y10	Z10	X11	Y11	Z11	X12	Y12	Z12	X13	Y13	Z13	X14	Y14	Z14	X15	Y15	Z15	X16	Y16	Z16	X17	Y17	Z17	X18	Y18	Z18	X19	Y19	Z19	X20	Y20	Z20	X21	Y21	Z21	X22	Y22	Z22	X23	Y23	Z23	X24	Y24	Z24	X25	Y25	Z25
31	0.30000000	-1561.349365	1400.931030	429.122192	-1569.839600	1412.459106	15.333894	-1632.733154	1495.722290	223.293076	-1514.129395	1370.551147	223.575729	-1686.432007	1085.639282	472.744812	-1554.338013	1072.870728	-41.043804	-1614.117493	824.234528	476.743149	-1371.207397	878.504639	-3.995946	-1532.447876	974.324585	339.506104	-1529.280029	976.105164	100.655998	-1698.482056	1034.584106	234.639984	-1718.040649	1319.304077	224.162598	-1484.244995	1221.895142	212.636490	-1460.020630	615.083496	412.538116	-1424.864258	504.663452	360.379761	-1432.166626	283.610016	406.956390	-1424.452881	74.857956	338.976044	-1457.964600	61.504292	291.496094	-1272.395630	57.938862	321.426331	-1631.938965	548.785522	38.955612	-1658.293457	468.586151	119.043037	-1743.830566	246.068161	84.775574	-1790.446899	57.117298	168.641129	-1829.553589	70.012764	213.894089	-1638.493042	27.677523	184.768906
32	0.31000000	-1547.894287	1397.778320	429.470062	-1556.388428	1409.780151	15.706068	-1619.261230	1492.963257	223.762497	-1500.580078	1367.758545	223.898087	-1672.654907	1082.381226	472.807159	-1536.437500	1070.999023	-42.189857	-1600.735413	820.945282	477.229401	-1348.736511	881.498657	-1.904403	-1518.517090	971.052185	339.500671	-1515.832886	973.434265	100.539192	-1684.719360	1031.988770	234.841370	-1704.458496	1316.772705	224.537643	-1470.734619	1219.072144	212.745865	-1449.067871	611.169128	412.832611	-1411.574341	501.851288	359.950745	-1406.851196	280.892273	406.266541	-1385.067261	72.959373	337.819275	-1417.677612	58.048096	290.244781	-1231.927002	63.952530	319.785004	-1623.375977	547.114197	39.063744	-1651.556641	467.363983	119.134773	-1740.756958	246.022934	85.150269	-1789.932373	57.773941	169.438522	-1828.764771	71.155426	214.729492	-1638.280029	27.610773	184.872314
33	0.32000000	-1534.374146	1394.612427	429.859955	-1542.776489	1407.074097	16.123419	-1605.687378	1490.182373	224.253433	-1486.926880	1364.950928	224.274078	-1658.625122	1079.020630	472.850250	-1518.649536	1069.104370	-43.063557	-1587.150940	817.551758	477.736389	-1326.844421	884.257172	0.130435	-1504.449219	967.707458	339.548950	-1502.232910	970.775024	100.469635	-1670.824951	1029.343750	235.132980	-1690.764893	1314.213745	224.930435	-1457.065552	1216.239380	212.953308	-1438.750854	606.741943	413.193848	-1398.678955	498.852478	359.385529	-1382.659302	278.508484	405.360504	-1347.461060	72.101257	336.509674	-1379.052979	55.804485	288.759125	-1193.550049	70.530457	318.242157	-1614.919434	545.547729	39.063908	-1644.671997	466.213470	119.166321	-1737.767456	246.191010	85.565338	-1789.401367	58.632431	170.282898	-1827.906982	72.555298	215.628403	-1638.072510	27.552567	184.967239
34	0.33000000	-1520.787964	1391.484009	430.302551	-1528.978638	1404.416260	16.601437	-1592.006592	1487.423096	224.776184	-1473.160278	1362.175537	224.716263	-1644.348511	1075.612671	472.871277	-1501.022827	1067.228516	-43.635201	-1573.360352	814.101685	478.256195	-1305.580261	886.757050	2.061762	-1490.232910	964.370483	339.635651	-1488.476074	968.158142	100.425812	-1656.794312	1026.690796	235.506561	-1676.949707	1311.667236	225.338455	-1443.208618	1213.453613	213.273010	-1428.772095	601.954407	413.533722	-1386.037476	495.756470	358.658447	-1359.854736	276.358154	404.175995	-1312.216675	72.022835	334.972107	-1342.680542	54.542767	286.944031	-1157.774536	77.251404	316.911011	-1606.529175	544.101929	38.972973	-1637.571899	465.139313	119.160294	-1734.770142	246.600174	85.988670	-1788.843140	59.734287	171.103394	-1826.985352	74.246826	216.514679	-1637.871948	27.503283	185.054550
35	0.34000000	-1507.134033	1388.438232	430.809937	-1514.973755	1401.880493	17.156902	-1578.215576	1484.727661	225.344971	-1459.269775	1359.479370	225.237366	-1629.833984	1072.211914	472.869324	-1483.607300	1065.411133	-43.881828	-1559.361633	810.643463	478.783005	-1284.990601	888.967804	3.846366	-1475.859497	961.128296	339.748505	-1474.555542	965.608704	100.386398	-1642.622314	1024.073120	235.945724	-1663.004517	1309.172607	225.759445	-1429.159912	1210.768188	213.706161	-1418.766113	597.021729	413.750519	-1373.485718	492.659637	357.767578	-1338.664673	274.312347	402.658020	-1279.903442	72.389854	333.103485	-1309.148682	53.969242	284.685577	-1125.094482	83.605667	315.848389	-1598.083618	542.779175	38.813595	-1630.154541	464.134552	119.129967	-1731.640137	247.267426	86.359894	-1788.239014	61.121960	171.801056	-1826.003418	76.268005	217.277313	-1637.679810	27.461834	185.133575
36	0.35000000	-1493.407715	1385.514038	431.393188	-1500.746582	1399.533936	17.806366	-1564.312134	1482.137695	225.976837	-1445.245117	1356.909912	225.849426	-1615.094971	1068.870483	472.845795	-1466.446777	1063.688354	-43.788235	-1545.155334	807.226593	479.311508	-1265.106873	890.852386	5.448414	-1461.323608	958.070435	339.880737	-1460.461182	963.147034	100.338707	-1628.300171	1021.537476	236.428574	-1648.920898	1306.768311	226.191345	-1414.933716	1208.232300	214.244293	-1408.350586	592.211792	413.741882	-1360.842773	489.664764	356.729584	-1319.238281	272.246887	400.767456	-1251.027344	72.836456	330.804321	-1279.002075	53.760887	281.887512	-1095.944214	89.029182	315.022827	-1589.403198	541.572632	38.602940	-1622.299927	463.185974	119.072983	-1728.234863	248.197830	86.601173	-1787.560913	62.839264	172.266144	-1824.957397	78.664001	217.790100	-1637.495483	27.425264	185.200684
37	0.36000000	-1479.603149	1382.745361	432.063202	-1486.290039	1397.432983	18.564344	-1550.293335	1479.695679	226.689865	-1431.076782	1354.517212	226.562744	-1600.149414	1065.635376	472.804596	-1449.575317	1062.091553	-43.347416	-1530.745056	803.901306	479.837692	-1245.940735	892.372498	6.841178	-1446.622437	955.285645	340.032349	-1446.178467	960.791870	100.283890	-1613.813721	1019.136353	236.930511	-1634.689331	1304.490601	226.632324	-1400.542725	1205.890381	214.877121	-1397.191406	587.809021	413.425659	-1347.926147	486.880188	355.568787	-1301.619751	270.081299	398.494751	-1225.970581	73.022171	328.026093	-1252.694946	53.607758	278.530029	-1070.646973	92.959396	314.298218	-1580.283569	540.471558	38.348827	-1613.882690	462.279755	118.973732	-1724.405640	249.389435	86.635658	-1786.771973	64.933235	172.397644	-1823.829956	81.490120	217.934799	-1637.317871	27.389498	185.249893
